<svg width="32" height="35" viewBox="0 0 32 35" fill="none" xmlns="http://www.w3.org/2000/svg">
<path d="M23.054 21.4231C22.9306 21.5583 22.7841 21.6656 22.6228 21.7388C22.4615 21.8119 22.2886 21.8496 22.114 21.8496C21.9393 21.8496 21.7664 21.8119 21.6051 21.7388C21.4438 21.6656 21.2973 21.5583 21.1739 21.4231L16.0004 15.7648L10.8269 21.4231C10.5776 21.6958 10.2395 21.849 9.8869 21.849C9.53432 21.849 9.19618 21.6958 8.94687 21.4231C8.69756 21.1505 8.5575 20.7806 8.5575 20.395C8.5575 20.0094 8.69756 19.6396 8.94687 19.3669L15.0671 12.6731C15.1904 12.5379 15.3369 12.4307 15.4982 12.3575C15.6595 12.2843 15.8325 12.2466 16.0071 12.2466C16.1817 12.2466 16.3546 12.2843 16.5159 12.3575C16.6772 12.4307 16.8238 12.5379 16.9471 12.6731L23.0673 19.3669C23.574 19.921 23.574 20.8544 23.054 21.4231Z" fill="#FAFAFA"/>
</svg>
